# xmcd
#
# Track frame offsets:
#	150
#	9585
#	26302
#	35896
#	48777
#	65222
#	74513
#	89094
#	103613
#	116345
#
# Disc length: 1715 seconds
#
# Revision: 0
# Processed by: cddbd v1.5.2PL0 Copyright (c) Steve Scherf et al.
# Submitted via: EasyCDDAExtractor 16.0.1.1
#
DISCID=8806b10a
DTITLE=Larry Butler feat Willie Nelson - Searching For Gold
DYEAR=1900
DGENRE=Country
TTITLE0=Big Balls In Cowtown
TTITLE1=My Mama's Waltz
TTITLE2=I'm Not Wanted Anymore
TTITLE3=Ole Gladys
TTITLE4=Difference Between Men And Boys
TTITLE5=Thinking Houston
TTITLE6=Only The Dead Are Free
TTITLE7=His Horse Is Whiskey
TTITLE8=Let's Forever Be Together
TTITLE9=Echoes Fade And Die
EXTD=
EXTT0=
EXTT1=
EXTT2=
EXTT3=
EXTT4=
EXTT5=
EXTT6=
EXTT7=
EXTT8=
EXTT9=
PLAYORDER=
